<svg xmlns="http://www.w3.org/2000/svg" viewBox="0 0 20.87 8.03">
  <defs>
    <style>
      .ebd7e832-4800-4f1b-a161-5442ef9d3ae5 {
        fill: #4d4d4d;
      }
    </style>
  </defs>
  <title>Asset 2</title>
  <g id="5973cd7c-723e-41ee-bf7d-869215cbb2fd" data-name="Layer 2">
    <g id="5371f941-1d5d-4e70-b7f5-b740f3724bd3" data-name="main shop">
      <g id="b2dcf9dd-89fb-436a-8fbd-a7fb4792ebc9" data-name="main page">
        <g id="2bdcae38-5a43-43cd-a4b5-cc8b45a9f164" data-name="header">
          <g id="91695dcc-44a9-4578-874a-9c3a5cdb205f" data-name="top right">
            <g>
              <path class="ebd7e832-4800-4f1b-a161-5442ef9d3ae5" d="M1.63,6.74a2.41,2.41,0,0,1-.49-.06,1.81,1.81,0,0,1-.52-.22A1.52,1.52,0,0,1,.2,6,1.45,1.45,0,0,1,0,5.25a1.67,1.67,0,0,1,.16-.78A1.38,1.38,0,0,1,.62,4a1.67,1.67,0,0,1,.58-.29,2.72,2.72,0,0,1,.63-.08H3.21V6.06a.87.87,0,0,0,.12.52c.07.1.24.15.5.15H4a.31.31,0,0,1,.35.35.38.38,0,0,1-.09.3A.37.37,0,0,1,4,7.46h-.3a2,2,0,0,1-.43,0A1,1,0,0,1,3,7.28,1,1,0,0,1,2.67,7a1.14,1.14,0,0,1-.15-.43,1.69,1.69,0,0,1-.43.11A2.49,2.49,0,0,1,1.63,6.74ZM.72,5.18A.79.79,0,0,0,1,5.77,1,1,0,0,0,1.69,6,2.08,2.08,0,0,0,2.1,6a1.56,1.56,0,0,0,.4-.11V4.3H1.73A1.19,1.19,0,0,0,1,4.51.77.77,0,0,0,.72,5.18ZM.91,2a.45.45,0,0,1,.14-.32.45.45,0,0,1,.33-.14.45.45,0,0,1,.32.14A.45.45,0,0,1,1.84,2a.45.45,0,0,1-.14.33.45.45,0,0,1-.32.14.45.45,0,0,1-.33-.14A.45.45,0,0,1,.91,2ZM2.05,2a.44.44,0,0,1,.13-.32.45.45,0,0,1,.33-.14A.48.48,0,0,1,3,2a.45.45,0,0,1-.14.33.45.45,0,0,1-.32.14.45.45,0,0,1-.33-.14A.44.44,0,0,1,2.05,2Z" transform="translate(-0.03 -1.24)"/>
              <path class="ebd7e832-4800-4f1b-a161-5442ef9d3ae5" d="M4,7.46a.31.31,0,0,1-.35-.35.42.42,0,0,1,.08-.29A.36.36,0,0,1,4,6.74h.58l.36,0a.61.61,0,0,0,.25-.08.58.58,0,0,0,.15-.19,1.12,1.12,0,0,0,0-.35v-2h.72V5.78a2.41,2.41,0,0,0,0,.4.68.68,0,0,0,.12.3.55.55,0,0,0,.23.19,1,1,0,0,0,.37.07.3.3,0,0,1,.35.35.42.42,0,0,1-.08.29.4.4,0,0,1-.27.08.85.85,0,0,1-.54-.16.73.73,0,0,1-.28-.41.81.81,0,0,1-.49.47,2.86,2.86,0,0,1-.83.1Zm.69,1.31a.44.44,0,0,1,.13-.32.45.45,0,0,1,.33-.14.43.43,0,0,1,.32.14.45.45,0,0,1,.14.32.45.45,0,0,1-.14.33.43.43,0,0,1-.32.14.45.45,0,0,1-.33-.14A.44.44,0,0,1,4.73,8.77Zm1.13,0A.44.44,0,0,1,6,8.45a.46.46,0,0,1,.66,0,.44.44,0,0,1,.13.32.44.44,0,0,1-.13.33A.46.46,0,0,1,6,9.1.44.44,0,0,1,5.86,8.77Z" transform="translate(-0.03 -1.24)"/>
              <path class="ebd7e832-4800-4f1b-a161-5442ef9d3ae5" d="M6.89,7.46a.31.31,0,0,1-.34-.35.37.37,0,0,1,.08-.29.33.33,0,0,1,.26-.08H8.25V4.11H9V7.46ZM8,8.76a.46.46,0,1,1,.92,0,.44.44,0,0,1-.13.32.46.46,0,0,1-.66,0A.44.44,0,0,1,8,8.76Z" transform="translate(-0.03 -1.24)"/>
              <path class="ebd7e832-4800-4f1b-a161-5442ef9d3ae5" d="M12.28,7.46a.82.82,0,0,1-.48-.13A.91.91,0,0,1,11.52,7a6.19,6.19,0,0,1-.08,1.06,1.66,1.66,0,0,1-.28.7,1.14,1.14,0,0,1-.58.38,3.07,3.07,0,0,1-.94.12V8.56a1.94,1.94,0,0,0,.66-.09.72.72,0,0,0,.36-.3,1.28,1.28,0,0,0,.14-.52c0-.21,0-.47,0-.77V4.54h.7V5.78a1.27,1.27,0,0,0,.17.7.63.63,0,0,0,.59.26.31.31,0,0,1,.35.35.42.42,0,0,1-.08.29A.41.41,0,0,1,12.28,7.46Z" transform="translate(-0.03 -1.24)"/>
              <path class="ebd7e832-4800-4f1b-a161-5442ef9d3ae5" d="M12.29,7.46a.31.31,0,0,1-.35-.35A.37.37,0,0,1,12,6.82a.33.33,0,0,1,.26-.08h.39a4.89,4.89,0,0,0,.66,0A2.46,2.46,0,0,0,14,6.55L12.87,5.32c0-.06,0-.13.06-.2L13,4.91l.09-.18.1-.13a2,2,0,0,1,.68-.45,2.42,2.42,0,0,1,1.52-.07,1.38,1.38,0,0,1,.47.24,1,1,0,0,1,.37.75A1.6,1.6,0,0,1,16,6a2.61,2.61,0,0,1-.74.74,1.78,1.78,0,0,0,.44,0H16.9c.23,0,.34.11.34.35a.37.37,0,0,1-.08.29.37.37,0,0,1-.26.08H15.44A1.51,1.51,0,0,1,15,7.39a1.15,1.15,0,0,1-.48-.28,5,5,0,0,1-.86.26,4.43,4.43,0,0,1-.9.09Zm2.4-2.79a1.44,1.44,0,0,0-.65.14,1.34,1.34,0,0,0-.5.36l1.07,1.12a2.19,2.19,0,0,0,.67-.49.92.92,0,0,0,.26-.61.44.44,0,0,0-.21-.36A1,1,0,0,0,14.69,4.67Z" transform="translate(-0.03 -1.24)"/>
              <path class="ebd7e832-4800-4f1b-a161-5442ef9d3ae5" d="M16.89,7.46a.31.31,0,0,1-.35-.35.42.42,0,0,1,.08-.29.36.36,0,0,1,.27-.08h1.36V1.24H19V7.46Z" transform="translate(-0.03 -1.24)"/>
              <path class="ebd7e832-4800-4f1b-a161-5442ef9d3ae5" d="M20.89,1.24V7.46h-.71V1.24Z" transform="translate(-0.03 -1.24)"/>
            </g>
          </g>
        </g>
      </g>
    </g>
  </g>
</svg>
