<svg xmlns="http://www.w3.org/2000/svg" viewBox="0 0 15.03 12.21"><title>ic_cart</title><g id="Layer_2" data-name="Layer 2"><g id="main_shop" data-name="main shop"><g id="main_page" data-name="main page"><g id="header"><g id="top_left_icons" data-name="top left icons"><path id="ic_cart" d="M6.1,5.64h5.64a.47.47,0,1,1,0,.93H6.1A.47.47,0,1,1,6.1,5.64ZM.47.94H1.88c.36,0,.46.58.55,1l.93,4.93C3.71,8.2,4.54,8.45,5.64,8.45h5.63c1.38,0,2.38-.17,2.74-1.39l.88-3c.44-1.43-.16-2.21-1.52-2.21H5.17a.47.47,0,0,0,0,.94h8.2c.88,0,.81.36.62,1l-.86,2.9c-.23.8-1.12.78-1.86.78H5.64c-.85,0-1.16-.13-1.34-.81L3.36,1.8C3.16.73,2.94,0,1.88,0H.47A.47.47,0,0,0,.47.94Zm4.7,2.82h7.51a.47.47,0,0,1,0,.94H5.17A.47.47,0,0,1,5.17,3.76ZM10.8,9.39a1.41,1.41,0,1,0,1.41,1.41A1.42,1.42,0,0,0,10.8,9.39Zm0,.94a.46.46,0,0,1,.47.47.46.46,0,0,1-.47.47.46.46,0,0,1-.47-.47A.47.47,0,0,1,10.8,10.33ZM5.17,9.39a1.41,1.41,0,1,0,1.4,1.41A1.41,1.41,0,0,0,5.17,9.39Zm0,.94a.47.47,0,0,1,.47.47.46.46,0,0,1-.47.47.46.46,0,0,1-.47-.47A.46.46,0,0,1,5.17,10.33Z"/></g></g></g></g></g></svg>