<svg xmlns="http://www.w3.org/2000/svg" viewBox="0 0 15.03 15.03"><title>ic_lookingglass</title><g id="Layer_2" data-name="Layer 2"><g id="main_shop" data-name="main shop"><g id="main_page" data-name="main page"><g id="header"><g id="top_left_icons" data-name="top left icons"><path id="ic_lookingglass" d="M4.84,9.52.13,14.22c-.41.41.23,1.1.65.68l4.7-4.7A.47.47,0,0,0,4.84,9.52Zm5-7.64a2.72,2.72,0,0,0-2.22,1c-.38.51.29,1,.62.72a2.07,2.07,0,0,1,3.21,0c.32.37,1-.2.62-.72A2.84,2.84,0,0,0,9.85,1.88ZM9.86,0A5.17,5.17,0,1,0,15,5.17,5.17,5.17,0,0,0,9.86,0Zm0,.94A4.23,4.23,0,1,1,5.64,5.17,4.23,4.23,0,0,1,9.86.94Z"/></g></g></g></g></g></svg>