<?xml version="1.0" encoding="UTF-8" standalone="no"?>
<svg
   xmlns:dc="http://purl.org/dc/elements/1.1/"
   xmlns:cc="http://creativecommons.org/ns#"
   xmlns:rdf="http://www.w3.org/1999/02/22-rdf-syntax-ns#"
   xmlns:svg="http://www.w3.org/2000/svg"
   xmlns="http://www.w3.org/2000/svg"
   xmlns:xlink="http://www.w3.org/1999/xlink"
   height="20.200001"
   width="19.775"
   xml:space="preserve"
   viewBox="0 0 19.774999 20.200001"
   y="0px"
   x="0px"
   id="Layer_1"
   version="1.1"><metadata
   id="metadata129"><rdf:RDF><cc:Work
       rdf:about=""><dc:format>image/svg+xml</dc:format><dc:type
         rdf:resource="http://purl.org/dc/dcmitype/StillImage" /><dc:title></dc:title></cc:Work></rdf:RDF></metadata><defs
   id="defs127" />
<style
   id="style2"
   type="text/css">
	.st0{fill:#4E4F4F;}
	.st1{fill:#A991C5;}
	.st2{fill:#4D4D4D;}
	.st3{fill:none;stroke:#4D4D4D;stroke-width:0.6;stroke-linecap:round;stroke-linejoin:round;stroke-miterlimit:10;}
	
		.st4{clip-path:url(#SVGID_2_);fill:none;stroke:#4D4D4D;stroke-width:0.6;stroke-linecap:round;stroke-linejoin:round;stroke-miterlimit:10;}
</style>
<g
   transform="translate(-304.225,-308.8)"
   id="g14">
	<g
   id="g12">
		<g
   id="g6">
			<path
   style="fill:#4e4f4f"
   id="path4"
   d="m 410.5,329.3 h -16.2 c -0.1,0 -0.2,0 -0.3,-0.1 -0.1,-0.1 -0.1,-0.2 -0.1,-0.3 l 1.2,-14.4 c 0,-0.2 0.2,-0.3 0.4,-0.3 h 13.9 c 0.2,0 0.4,0.2 0.4,0.3 l 1.2,14.4 c 0,0.1 0,0.2 -0.1,0.3 -0.1,0 -0.2,0.1 -0.4,0.1 z m -15.7,-0.8 h 15.4 l -1.1,-13.7 h -13.2 z"
   class="st0" />
		</g>
		<g
   id="g10">
			<path
   style="fill:#4e4f4f"
   id="path8"
   d="m 406.7,317.4 c -0.2,0 -0.4,-0.2 -0.4,-0.4 v -4.8 c 0,-2 -1.7,-3.6 -3.9,-3.6 -2.2,0 -3.9,1.6 -3.9,3.6 v 4.8 c 0,0.2 -0.2,0.4 -0.4,0.4 -0.2,0 -0.4,-0.2 -0.4,-0.4 v -4.8 c 0,-2.4 2.1,-4.4 4.6,-4.4 2.6,0 4.6,2 4.6,4.4 v 4.8 c 0.2,0.2 0,0.4 -0.2,0.4 z"
   class="st0" />
		</g>
	</g>
</g>
<g
   transform="translate(-304.225,-308.8)"
   id="g28">
	<g
   id="g18">
		<path
   style="fill:#4e4f4f"
   id="path16"
   d="m 304.6,329 c -0.1,0 -0.2,0 -0.3,-0.1 -0.1,-0.1 -0.1,-0.4 0,-0.5 l 6.5,-6.5 c 0.1,-0.1 0.4,-0.1 0.5,0 0.1,0.1 0.1,0.4 0,0.5 l -6.5,6.5 c 0,0.1 -0.1,0.1 -0.2,0.1 z"
   class="st0" />
	</g>
	<g
   id="g22">
		<path
   style="fill:#4e4f4f"
   id="path20"
   d="m 316.9,323 c -3.9,0 -7.1,-3.2 -7.1,-7.1 0,-3.9 3.2,-7.1 7.1,-7.1 3.9,0 7.1,3.2 7.1,7.1 0,3.9 -3.1,7.1 -7.1,7.1 z m 0,-13.4 c -3.5,0 -6.3,2.8 -6.3,6.3 0,3.5 2.8,6.3 6.3,6.3 3.5,0 6.3,-2.8 6.3,-6.3 0,-3.5 -2.8,-6.3 -6.3,-6.3 z"
   class="st0" />
	</g>
	<g
   id="g26">
		<path
   style="fill:#4e4f4f"
   id="path24"
   d="m 314.2,313.6 c -0.1,0 -0.1,0 -0.2,-0.1 -0.2,-0.1 -0.2,-0.3 -0.1,-0.5 0.7,-1.1 2,-1.8 3.3,-1.8 1.1,0 2.1,0.4 2.8,1.2 0.1,0.1 0.1,0.4 0,0.5 -0.1,0.1 -0.4,0.1 -0.5,0 -0.6,-0.6 -1.4,-1 -2.3,-1 -1.1,0 -2.1,0.5 -2.7,1.5 -0.1,0.1 -0.2,0.2 -0.3,0.2 z"
   class="st0" />
	</g>
</g>

<g
   transform="translate(89.675,-1)"
   id="g159"><g
     id="g40"
     transform="translate(-393.9,-307.8)">
	<g
   id="g38">
		<g
   id="g32">
			<path
   class="st0"
   d="m 508.9,329.3 h -16.2 c -0.1,0 -0.2,0 -0.3,-0.1 -0.1,-0.1 -0.1,-0.2 -0.1,-0.3 l 1.2,-14.4 c 0,-0.2 0.2,-0.3 0.4,-0.3 h 13.9 c 0.2,0 0.4,0.2 0.4,0.3 l 1.2,14.4 c 0,0.1 0,0.2 -0.1,0.3 -0.2,0 -0.3,0.1 -0.4,0.1 z m -15.7,-0.8 h 15.4 l -1.1,-13.7 h -13.2 z"
   id="path30"
   style="fill:#4e4f4f" />
		</g>
		<g
   id="g36">
			<path
   class="st0"
   d="m 505.1,317.4 c -0.2,0 -0.4,-0.2 -0.4,-0.4 v -4.8 c 0,-2 -1.7,-3.6 -3.9,-3.6 -2.2,0 -3.9,1.6 -3.9,3.6 v 4.8 c 0,0.2 -0.2,0.4 -0.4,0.4 -0.2,0 -0.4,-0.2 -0.4,-0.4 v -4.8 c 0,-2.4 2.1,-4.4 4.6,-4.4 2.6,0 4.6,2 4.6,4.4 v 4.8 c 0.2,0.2 0,0.4 -0.2,0.4 z"
   id="path34"
   style="fill:#4e4f4f" />
		</g>
	</g>
</g><g
     id="g46"
     transform="translate(-393.9,-307.8)">
	<path
   class="st1"
   d="m 510.2,310 h -2.5 c -0.1,-0.3 -0.1,-0.6 -0.1,-1 0,-0.3 0,-0.7 0.1,-1 h 2.5 v -2.8 c 0.3,-0.1 0.6,-0.1 1,-0.1 0.3,0 0.7,0 1,0.1 v 2.8 h 2.5 c 0.1,0.3 0.1,0.6 0.1,1 0,0.3 0,0.7 -0.1,1 h -2.5 v 2.8 c -0.3,0.1 -0.6,0.1 -1,0.1 -0.3,0 -0.7,0 -1,-0.1 z"
   id="path42"
   style="fill:#a991c5" />
	<path
   class="st1"
   d="m 520.9,312.8 v -6.5 l -1.9,0.8 c -0.1,-0.1 -0.2,-0.3 -0.3,-0.4 -0.1,-0.1 -0.2,-0.3 -0.2,-0.4 -0.1,-0.3 -0.3,-0.6 -0.3,-0.9 l 4.6,-2 h 0.5 v 9.5 h 2.3 c 0,0.2 0.1,0.3 0.1,0.5 0,0.2 0,0.3 0,0.5 0,0.2 0,0.3 0,0.5 0,0.1 0,0.3 -0.1,0.5 h -6.9 c 0,-0.2 -0.1,-0.3 -0.1,-0.5 0,-0.2 0,-0.3 0,-0.5 0,-0.1 0,-0.3 0,-0.5 0,-0.2 0,-0.3 0.1,-0.5 h 2.2 z"
   id="path44"
   style="fill:#a991c5" />
</g></g>
<g
   transform="translate(-304.225,-308.8)"
   id="g58">
	<g
   id="g56">
		<g
   id="g50">
			<path
   style="fill:#4e4f4f"
   id="path48"
   d="m 1421.7,328.7 h -31.6 c -0.2,0 -0.4,-0.1 -0.5,-0.2 -0.1,-0.1 -0.2,-0.4 -0.2,-0.6 l 2.3,-28.2 c 0,-0.4 0.3,-0.7 0.7,-0.7 h 27.1 c 0.4,0 0.7,0.3 0.7,0.7 l 2.3,28.2 c 0,0.2 -0.1,0.4 -0.2,0.6 -0.2,0.1 -0.4,0.2 -0.6,0.2 z m -30.8,-1.5 h 30 l -2.1,-26.7 H 1393 Z"
   class="st0" />
		</g>
		<g
   id="g54">
			<path
   style="fill:#4e4f4f"
   id="path52"
   d="m 1414.2,305.4 c -0.4,0 -0.7,-0.3 -0.7,-0.7 v -9.3 c 0,-3.9 -3.4,-7.1 -7.6,-7.1 -4.2,0 -7.6,3.2 -7.6,7.1 v 9.3 c 0,0.4 -0.3,0.7 -0.7,0.7 -0.4,0 -0.7,-0.3 -0.7,-0.7 v -9.3 c 0,-4.7 4.1,-8.6 9.1,-8.6 5,0 9.1,3.9 9.1,8.6 v 9.3 c -0.1,0.4 -0.4,0.7 -0.9,0.7 z"
   class="st0" />
		</g>
	</g>
</g>
<g
   transform="translate(-304.225,-308.8)"
   id="g70">
	<g
   id="g68">
		<g
   id="g62">
			<path
   style="fill:#4e4f4f"
   id="path60"
   d="M 1316.6,328.7 H 1285 c -0.2,0 -0.4,-0.1 -0.5,-0.2 -0.1,-0.1 -0.2,-0.4 -0.2,-0.6 l 2.3,-28.2 c 0,-0.4 0.3,-0.7 0.7,-0.7 h 27.1 c 0.4,0 0.7,0.3 0.7,0.7 l 2.3,28.2 c 0,0.2 -0.1,0.4 -0.2,0.6 -0.2,0.1 -0.4,0.2 -0.6,0.2 z m -30.9,-1.5 h 30 l -2.1,-26.7 h -25.7 z"
   class="st0" />
		</g>
		<g
   id="g66">
			<path
   style="fill:#4e4f4f"
   id="path64"
   d="m 1309.1,305.4 c -0.4,0 -0.7,-0.3 -0.7,-0.7 v -9.3 c 0,-3.9 -3.4,-7.1 -7.6,-7.1 -4.2,0 -7.6,3.2 -7.6,7.1 v 9.3 c 0,0.4 -0.3,0.7 -0.7,0.7 -0.4,0 -0.7,-0.3 -0.7,-0.7 v -9.3 c 0,-4.7 4.1,-8.6 9.1,-8.6 5,0 9.1,3.9 9.1,8.6 v 9.3 c -0.2,0.4 -0.5,0.7 -0.9,0.7 z"
   class="st0" />
		</g>
	</g>
</g>
<g
   transform="translate(-304.225,-308.8)"
   id="g84">
	<g
   id="g74">
		<path
   style="fill:#4e4f4f"
   id="path72"
   d="m 1174.2,328.2 c -0.2,0 -0.4,-0.1 -0.5,-0.2 -0.3,-0.3 -0.3,-0.8 0,-1 l 12.7,-12.7 c 0.3,-0.3 0.8,-0.3 1,0 0.3,0.3 0.3,0.8 0,1 l -12.7,12.7 c -0.1,0.1 -0.3,0.2 -0.5,0.2 z"
   class="st0" />
	</g>
	<g
   id="g78">
		<path
   style="fill:#4e4f4f"
   id="path76"
   d="m 1198.3,316.4 c -7.7,0 -13.9,-6.2 -13.9,-13.9 0,-7.7 6.2,-13.9 13.9,-13.9 7.7,0 13.9,6.2 13.9,13.9 0,7.7 -6.3,13.9 -13.9,13.9 z m 0,-26.2 c -6.8,0 -12.4,5.6 -12.4,12.4 0,6.8 5.6,12.4 12.4,12.4 6.8,0 12.4,-5.6 12.4,-12.4 0,-6.8 -5.6,-12.4 -12.4,-12.4 z"
   class="st0" />
	</g>
	<g
   id="g82">
		<path
   style="fill:#4e4f4f"
   id="path80"
   d="m 1192.9,298 c -0.1,0 -0.3,0 -0.4,-0.1 -0.3,-0.2 -0.4,-0.7 -0.2,-1 1.4,-2.2 3.9,-3.5 6.5,-3.5 2.1,0 4.1,0.8 5.6,2.3 0.3,0.3 0.3,0.8 0,1 -0.3,0.3 -0.8,0.3 -1,0 -1.2,-1.2 -2.8,-1.9 -4.5,-1.9 -2.1,0 -4.1,1.1 -5.3,2.9 -0.2,0.2 -0.5,0.3 -0.7,0.3 z"
   class="st0" />
	</g>
</g>
<g
   transform="translate(-304.225,-308.8)"
   id="g90">
	<path
   style="fill:#a991c5"
   id="path86"
   d="m 1424.3,291.1 h -4.9 c -0.1,-0.6 -0.2,-1.3 -0.2,-1.9 0,-0.6 0.1,-1.3 0.2,-1.9 h 4.9 v -5.5 c 0.6,-0.1 1.3,-0.2 1.9,-0.2 0.6,0 1.3,0.1 1.9,0.2 v 5.5 h 4.9 c 0.1,0.6 0.2,1.3 0.2,1.9 0,0.6 -0.1,1.3 -0.2,1.9 h -4.9 v 5.5 c -0.6,0.1 -1.3,0.2 -1.9,0.2 -0.6,0 -1.3,-0.1 -1.9,-0.2 z"
   class="st1" />
	<path
   style="fill:#a991c5"
   id="path88"
   d="m 1445.1,296.4 v -12.7 l -3.8,1.5 c -0.2,-0.3 -0.4,-0.5 -0.6,-0.8 -0.2,-0.3 -0.3,-0.6 -0.5,-0.8 -0.3,-0.6 -0.5,-1.1 -0.7,-1.8 l 9,-3.9 h 0.9 v 18.5 h 4.5 c 0.1,0.4 0.1,0.7 0.1,1 0,0.3 0,0.6 0,0.9 0,0.3 0,0.6 0,0.9 0,0.3 -0.1,0.6 -0.1,1 h -13.4 c -0.1,-0.4 -0.1,-0.7 -0.1,-1 0,-0.3 0,-0.6 0,-0.9 0,-0.3 0,-0.6 0,-0.9 0,-0.3 0.1,-0.6 0.1,-1 z"
   class="st1" />
</g>
<g
   transform="translate(-304.225,-308.8)"
   id="g106">
	<g
   id="g94">
		<path
   style="fill:#4d4d4d"
   id="path92"
   d="m 609,326.5 c -3.4,0 -6.1,-2.7 -6.1,-6.1 0,-3.4 2.7,-6.1 6.1,-6.1 3.4,0 6.1,2.7 6.1,6.1 0,3.4 -2.7,6.1 -6.1,6.1 z m 0,-11.6 c -3,0 -5.5,2.5 -5.5,5.5 0,3 2.5,5.5 5.5,5.5 3,0 5.5,-2.5 5.5,-5.5 0,-3 -2.5,-5.5 -5.5,-5.5 z"
   class="st2" />
	</g>
	<g
   id="g104">
		<g
   id="g98">
			<path
   style="fill:#4d4d4d"
   id="path96"
   d="m 609,335.5 c -3.8,0 -7.3,-1.5 -9.9,-4.3 -0.1,-0.1 -0.1,-0.3 0,-0.4 0.1,-0.1 0.3,-0.1 0.4,0 2.5,2.6 5.9,4.1 9.5,4.1 3.6,0 7,-1.4 9.5,-4.1 0.1,-0.1 0.3,-0.1 0.4,0 0.1,0.1 0.1,0.3 0,0.4 -2.6,2.8 -6.1,4.3 -9.9,4.3 z"
   class="st2" />
		</g>
		<g
   id="g102">
			<path
   style="fill:#4d4d4d"
   id="path100"
   d="m 618.7,331.3 c 0,0 0,0 0,0 -0.1,0 -0.2,0 -0.2,-0.1 -2.3,-2.9 -5.8,-4.5 -9.5,-4.5 -3.7,0 -7.1,1.6 -9.5,4.5 -0.1,0.1 -0.1,0.1 -0.2,0.1 -0.1,0 -0.2,0 -0.2,-0.1 -2.5,-2.6 -3.8,-5.9 -3.8,-9.5 0,-7.6 6.2,-13.7 13.7,-13.7 7.5,0 13.7,6.2 13.7,13.7 0,3.5 -1.4,6.9 -3.8,9.5 -0.1,0.1 -0.1,0.1 -0.2,0.1 z m -9.7,-5.2 c 3.7,0 7.3,1.6 9.7,4.5 2.2,-2.4 3.4,-5.5 3.4,-8.8 0,-7.2 -5.9,-13.1 -13.1,-13.1 -7.2,0 -13.1,5.9 -13.1,13.1 0,3.3 1.2,6.4 3.4,8.8 2.4,-2.9 6,-4.5 9.7,-4.5 z"
   class="st2" />
		</g>
	</g>
</g>
<g
   transform="translate(-304.225,-308.8)"
   id="g122">
	<circle
   style="fill:none;stroke:#4d4d4d;stroke-width:0.60000002;stroke-linecap:round;stroke-linejoin:round;stroke-miterlimit:10"
   id="circle108"
   r="5.8000002"
   cy="319.79999"
   cx="1094"
   class="st3" />
	<g
   id="g120">
		<defs
   id="defs111">
			<path
   d="m 1094,307.7 c -7.4,0 -13.4,6 -13.4,13.4 0,7.4 6,13.4 13.4,13.4 7.4,0 13.4,-6 13.4,-13.4 0,-7.4 -6,-13.4 -13.4,-13.4 z"
   id="SVGID_1_" />
		</defs>
		<clipPath
   id="SVGID_2_">
			<use
   height="100%"
   width="100%"
   y="0"
   x="0"
   id="use113"
   style="overflow:visible"
   xlink:href="#SVGID_1_" />
		</clipPath>
		<path
   style="fill:none;stroke:#4d4d4d;stroke-width:0.60000002;stroke-linecap:round;stroke-linejoin:round;stroke-miterlimit:10"
   id="path116"
   clip-path="url(#SVGID_2_)"
   d="m 1094,325.8 c -6.9,0 -12.5,5.6 -12.5,12.5 0,6.9 5.6,12.5 12.5,12.5 6.9,0 12.5,-5.6 12.5,-12.5 0,-6.9 -5.6,-12.5 -12.5,-12.5 z"
   class="st4" />
		
			<use
   height="100%"
   width="100%"
   y="0"
   x="0"
   id="use118"
   style="overflow:visible;fill:none;stroke:#4d4d4d;stroke-width:0.60000002;stroke-linecap:round;stroke-linejoin:round;stroke-miterlimit:10"
   xlink:href="#SVGID_1_" />
	</g>
</g>
</svg>