<svg xmlns="http://www.w3.org/2000/svg" viewBox="0 0 79.42 24.49">
  <title>victory logo</title>
  <g id="40520003-e882-44a7-b161-9b4d6615b4bb" data-name="Layer 2">
    <g id="b4dc20d4-8b87-4993-a067-e6800e54ea0e" data-name="main shop">
      <g id="bffbd03a-3f0b-4897-ab26-6104130a19cd" data-name="main page">
        <g id="a3c6a127-f0ca-470a-8ec4-92a80793e4b8" data-name="header">
          <g id="6bb4354c-92c0-4005-a27c-a4861e37d333" data-name="victory_logo">
            <path d="M.12,8.62a8,8,0,0,1,1.1-.15l.88,0,1,0A5.1,5.1,0,0,1,4,8.6l2.78,9.49L9.52,8.6c.28,0,.58-.09.89-.12s.62,0,.94,0l.85,0a8.53,8.53,0,0,1,1.09.15L8.46,21.35a9.74,9.74,0,0,1-1,.1l-.86,0-.84,0a5,5,0,0,1-.89-.13Z" transform="translate(-0.12 -3)"/>
            <path d="M15.83,11.26H14.18a6.45,6.45,0,0,1-.11-.68c0-.24,0-.46,0-.68a5.64,5.64,0,0,1,.15-1.3h5.08V21.35a10.57,10.57,0,0,1-3.43,0Zm-.51-4.81a9.37,9.37,0,0,1-.15-1.65,9.75,9.75,0,0,1,.15-1.66l.9-.11.87,0L18,3l.92.11A8.15,8.15,0,0,1,19,4c0,.27,0,.55,0,.83s0,.53,0,.81a8,8,0,0,1-.1.84,8,8,0,0,1-.9.1l-.9,0-.89,0A7.91,7.91,0,0,1,15.32,6.45Z" transform="translate(-0.12 -3)"/>
            <path d="M31.27,18.34a5,5,0,0,1,.5,1.14A5.48,5.48,0,0,1,32,21a7.43,7.43,0,0,1-1.85.5,13,13,0,0,1-1.8.11,7.19,7.19,0,0,1-2.78-.5,5.23,5.23,0,0,1-2-1.4,6,6,0,0,1-1.18-2.11A8.61,8.61,0,0,1,22,15a8.76,8.76,0,0,1,.38-2.61,6.07,6.07,0,0,1,1.16-2.12,5.28,5.28,0,0,1,1.94-1.43,6.46,6.46,0,0,1,2.69-.52l1,0a8,8,0,0,1,.87.1,8.52,8.52,0,0,1,.84.2c.28.08.59.19.94.32a6.14,6.14,0,0,1-.15,1.27,5.84,5.84,0,0,1-.47,1.35,7.88,7.88,0,0,0-1.3-.34,8,8,0,0,0-1.27-.08,2.74,2.74,0,0,0-2.3,1A4.56,4.56,0,0,0,25.55,15a4.18,4.18,0,0,0,.84,2.91,2.94,2.94,0,0,0,2.27.92l.68,0a3.05,3.05,0,0,0,.6-.06,3.61,3.61,0,0,0,.61-.15Z" transform="translate(-0.12 -3)"/>
            <path d="M34.78,11.26H33.17l-.12-.49,4.61-5.9h.57V8.6h3a4.42,4.42,0,0,1,.1.66,6.13,6.13,0,0,1,0,.62q0,.34,0,.66a5.16,5.16,0,0,1-.1.72h-3v5a5.09,5.09,0,0,0,.12,1.23,1.77,1.77,0,0,0,.36.74,1.23,1.23,0,0,0,.58.37,3.2,3.2,0,0,0,.81.1,4.4,4.4,0,0,0,.73-.06l.63-.11a5.11,5.11,0,0,1,.25,1,6.2,6.2,0,0,1,.07.9c0,.18,0,.33,0,.46s0,.24,0,.35a10.12,10.12,0,0,1-2.34.27,5,5,0,0,1-3.43-1A4.36,4.36,0,0,1,34.78,17Z" transform="translate(-0.12 -3)"/>
            <path d="M49.28,21.64a6.74,6.74,0,0,1-2.7-.5,5.11,5.11,0,0,1-1.9-1.41,6.22,6.22,0,0,1-1.14-2.11A8.71,8.71,0,0,1,43.16,15a9,9,0,0,1,.38-2.64,6.22,6.22,0,0,1,1.14-2.13,5.14,5.14,0,0,1,1.9-1.42,6.41,6.41,0,0,1,2.7-.52A6.52,6.52,0,0,1,52,8.82a5.33,5.33,0,0,1,1.93,1.42,6,6,0,0,1,1.13,2.13A9,9,0,0,1,55.42,15a8.71,8.71,0,0,1-.37,2.61,6,6,0,0,1-1.13,2.11A5.31,5.31,0,0,1,52,21.14,6.86,6.86,0,0,1,49.28,21.64Zm0-2.66a2.12,2.12,0,0,0,2-1,5.82,5.82,0,0,0,.61-3,5.79,5.79,0,0,0-.61-2.95,2.12,2.12,0,0,0-2-1,2.09,2.09,0,0,0-2,1A5.79,5.79,0,0,0,46.71,15a5.82,5.82,0,0,0,.61,3A2.09,2.09,0,0,0,49.28,19Z" transform="translate(-0.12 -3)"/>
            <path d="M58.18,8.6l.7-.12c.23,0,.47,0,.73,0a4.4,4.4,0,0,1,.73.05c.24,0,.47.07.7.12a1.28,1.28,0,0,1,.14.36c0,.15.08.32.11.49l.09.52c0,.17,0,.32.06.43a6.16,6.16,0,0,1,1.33-1.37,3.14,3.14,0,0,1,2-.6l.57,0a1.94,1.94,0,0,1,.47.08,4.06,4.06,0,0,1,.07.56c0,.22,0,.44,0,.67s0,.58,0,.91a6.85,6.85,0,0,1-.14.94,3.64,3.64,0,0,0-.6-.05h-.41a5.39,5.39,0,0,0-.93.09,2.11,2.11,0,0,0-1,.45A2.82,2.82,0,0,0,62,13.23a5.71,5.71,0,0,0-.31,2.07v6.07a8.78,8.78,0,0,1-.88.1c-.3,0-.59,0-.87,0s-.56,0-.85,0-.59,0-.9-.1Z" transform="translate(-0.12 -3)"/>
            <path d="M66.62,8.6a5,5,0,0,1,1-.14h.8l1,0a5.2,5.2,0,0,1,.94.13L73,19.72,76,8.6a9.21,9.21,0,0,1,1.68-.15h.78a5.88,5.88,0,0,1,1,.14L74.78,24.36a6.41,6.41,0,0,1-.7,1.55,3.29,3.29,0,0,1-.93,1,3.24,3.24,0,0,1-1.16.48,6.58,6.58,0,0,1-1.38.14,7.76,7.76,0,0,1-1.24-.09,10.23,10.23,0,0,1-1.1-.23.88.88,0,0,1,0-.21v-.19a4.52,4.52,0,0,1,.14-1.12,8.67,8.67,0,0,1,.33-1,4,4,0,0,0,.6.13,4.49,4.49,0,0,0,.73.06q.3,0,.6,0a1.54,1.54,0,0,0,.58-.22,2,2,0,0,0,.53-.58,4.64,4.64,0,0,0,.44-1.11l.42-1.53c-.18,0-.38,0-.6,0l-.68,0h-.52a2,2,0,0,1-.44,0Z" transform="translate(-0.12 -3)"/>
          </g>
        </g>
      </g>
    </g>
  </g>
</svg>
